<svg width="101" height="19" viewBox="0 0 101 19" fill="none" xmlns="http://www.w3.org/2000/svg">
<g id="HiveMind">
<path d="M1.24534 18.9487C0.864117 18.9487 0.559134 18.8332 0.330398 18.6023C0.110133 18.3628 0 18.0421 0 17.6401V1.35989C0 0.957911 0.110133 0.641459 0.330398 0.410533C0.559134 0.171056 0.864117 0.0513167 1.24534 0.0513167C1.63504 0.0513167 1.94003 0.171056 2.16029 0.410533C2.38903 0.641459 2.5034 0.957911 2.5034 1.35989V8.18501H12.3137V1.35989C12.3137 0.957911 12.4238 0.641459 12.6441 0.410533C12.8728 0.171056 13.182 0.0513167 13.5717 0.0513167C13.9529 0.0513167 14.2537 0.171056 14.474 0.410533C14.7027 0.641459 14.8171 0.957911 14.8171 1.35989V17.6401C14.8171 18.0421 14.7027 18.3628 14.474 18.6023C14.2537 18.8332 13.9529 18.9487 13.5717 18.9487C13.182 18.9487 12.8728 18.8332 12.6441 18.6023C12.4238 18.3628 12.3137 18.0421 12.3137 17.6401V10.4173H2.5034V17.6401C2.5034 18.0421 2.38903 18.3628 2.16029 18.6023C1.94003 18.8332 1.63504 18.9487 1.24534 18.9487Z" fill="white"/>
<path d="M19.1631 3.18163C18.7649 3.18163 18.4218 3.04051 18.1337 2.75827C17.8457 2.46748 17.7017 2.12109 17.7017 1.71911C17.7017 1.31713 17.8457 0.975017 18.1337 0.692775C18.4218 0.401981 18.7649 0.256583 19.1631 0.256583C19.5697 0.256583 19.917 0.401981 20.2051 0.692775C20.4931 0.975017 20.6371 1.31713 20.6371 1.71911C20.6371 2.12109 20.4931 2.46748 20.2051 2.75827C19.917 3.04051 19.5697 3.18163 19.1631 3.18163ZM19.1631 19C18.8072 19 18.515 18.8803 18.2862 18.6408C18.066 18.3928 17.9558 18.0763 17.9558 17.6914V6.41458C17.9558 6.02971 18.066 5.71753 18.2862 5.47806C18.515 5.23858 18.8072 5.11884 19.1631 5.11884C19.5189 5.11884 19.8069 5.23858 20.0272 5.47806C20.2559 5.71753 20.3703 6.03399 20.3703 6.42741V17.6914C20.3703 18.0763 20.2559 18.3928 20.0272 18.6408C19.8069 18.8803 19.5189 19 19.1631 19Z" fill="white"/>
<path d="M28.1092 19C27.6941 19 27.3595 18.9016 27.1053 18.7049C26.8596 18.5082 26.6521 18.1918 26.4826 17.7556L22.3654 6.88926C22.3315 6.78663 22.3018 6.67972 22.2764 6.56853C22.251 6.45735 22.2383 6.34616 22.2383 6.23498C22.2383 5.90142 22.3484 5.63201 22.5687 5.42674C22.7974 5.22147 23.0939 5.11884 23.4582 5.11884C24.0089 5.11884 24.3859 5.43102 24.5892 6.05537L28.0965 16.2417H28.1473L31.6546 6.05537C31.7563 5.73036 31.9003 5.49516 32.0867 5.34976C32.2815 5.19581 32.5103 5.11884 32.7729 5.11884C33.1287 5.11884 33.4168 5.22147 33.637 5.42674C33.8573 5.63201 33.9674 5.90142 33.9674 6.23498C33.9674 6.33761 33.9547 6.44452 33.9293 6.55571C33.9123 6.66689 33.8827 6.7738 33.8403 6.87643L29.7358 17.7556C29.5833 18.1747 29.3715 18.4868 29.1004 18.6921C28.8378 18.8974 28.5074 19 28.1092 19Z" fill="white"/>
<path d="M40.982 19C39.0081 19 37.4705 18.3928 36.3691 17.1783C35.2678 15.9638 34.7172 14.2746 34.7172 12.1107C34.7172 10.6995 34.9628 9.46793 35.4542 8.41594C35.954 7.36394 36.6614 6.55143 37.5764 5.97839C38.4913 5.40536 39.563 5.11884 40.7914 5.11884C41.9436 5.11884 42.9602 5.38397 43.8412 5.91425C44.7223 6.43597 45.4085 7.16723 45.8998 8.10804C46.3997 9.04029 46.6496 10.1222 46.6496 11.3538C46.6496 11.7729 46.5352 12.1022 46.3065 12.3417C46.0862 12.5811 45.777 12.7009 45.3788 12.7009H37.1824C37.1824 12.7009 37.1824 12.7052 37.1824 12.7137C37.1824 14.0137 37.5171 15.0443 38.1863 15.8055C38.8556 16.5582 39.7621 16.9345 40.9058 16.9345C41.6767 16.9345 42.329 16.7848 42.8627 16.4855C43.3965 16.1776 43.9217 15.6559 44.4385 14.9203C44.5656 14.7493 44.6969 14.6295 44.8324 14.5611C44.9764 14.4927 45.1374 14.4585 45.3153 14.4585C45.6288 14.4585 45.8787 14.5526 46.065 14.7407C46.2599 14.9203 46.3573 15.1684 46.3573 15.4848C46.3573 15.673 46.298 15.9039 46.1794 16.1776C45.7558 17.0756 45.0908 17.7727 44.1843 18.2687C43.2778 18.7562 42.2104 19 40.982 19ZM37.2079 10.8663H44.1843C44.1674 10.1222 44.0107 9.47648 43.7141 8.9291C43.4261 8.37317 43.0279 7.94126 42.5196 7.63336C42.0198 7.32546 41.4352 7.17151 40.766 7.17151C40.1052 7.17151 39.5122 7.32546 38.9869 7.63336C38.4701 7.94126 38.055 8.37317 37.7416 8.9291C37.4366 9.47648 37.2587 10.1222 37.2079 10.8663Z" fill="white"/>
<path d="M50.2077 18.9487C49.8434 18.9487 49.5554 18.8418 49.3436 18.628C49.1403 18.4056 49.0386 18.1062 49.0386 17.7299V1.64213C49.0386 1.16318 49.1826 0.778303 49.4707 0.487508C49.7672 0.196714 50.1611 0.0513167 50.6525 0.0513167C51.0846 0.0513167 51.4361 0.158226 51.7072 0.372046C51.9783 0.585865 52.2113 0.927977 52.4061 1.39838L58.1246 15.3565H58.2262L63.9446 1.39838C64.131 0.927977 64.364 0.585865 64.6436 0.372046C64.9316 0.158226 65.2916 0.0513167 65.7237 0.0513167C66.2066 0.0513167 66.5921 0.196714 66.8801 0.487508C67.1681 0.76975 67.3122 1.15463 67.3122 1.64213V17.7299C67.3122 18.1062 67.2063 18.4056 66.9945 18.628C66.7911 18.8418 66.5073 18.9487 66.1431 18.9487C65.7872 18.9487 65.5034 18.8418 65.2916 18.628C65.0883 18.4056 64.9867 18.1062 64.9867 17.7299V4.74679H64.8977L59.5859 17.6016C59.2979 18.2858 58.8277 18.628 58.1754 18.628C57.5146 18.628 57.0444 18.2944 56.7648 17.6273L51.4531 4.74679H51.3641V17.7299C51.3641 18.1062 51.2582 18.4056 51.0464 18.628C50.8431 18.8418 50.5635 18.9487 50.2077 18.9487Z" fill="#FF6B00"/>
<path d="M71.6454 3.18163C71.2473 3.18163 70.9042 3.04051 70.6161 2.75827C70.3281 2.46748 70.1841 2.12109 70.1841 1.71911C70.1841 1.31713 70.3281 0.975017 70.6161 0.692775C70.9042 0.401981 71.2473 0.256583 71.6454 0.256583C72.0521 0.256583 72.3994 0.401981 72.6875 0.692775C72.9755 0.975017 73.1195 1.31713 73.1195 1.71911C73.1195 2.12109 72.9755 2.46748 72.6875 2.75827C72.3994 3.04051 72.0521 3.18163 71.6454 3.18163ZM71.6454 19C71.2896 19 70.9974 18.8803 70.7686 18.6408C70.5484 18.3928 70.4382 18.0763 70.4382 17.6914V6.41458C70.4382 6.02971 70.5484 5.71753 70.7686 5.47806C70.9974 5.23858 71.2896 5.11884 71.6454 5.11884C72.0013 5.11884 72.2893 5.23858 72.5096 5.47806C72.7383 5.71753 72.8527 6.03399 72.8527 6.42741V17.6914C72.8527 18.0763 72.7383 18.3928 72.5096 18.6408C72.2893 18.8803 72.0013 19 71.6454 19Z" fill="#FF6B00"/>
<path d="M76.8301 19C76.4743 19 76.1821 18.8803 75.9533 18.6408C75.7246 18.4013 75.6102 18.0849 75.6102 17.6914V6.35044C75.6102 5.98267 75.7161 5.6876 75.9279 5.46523C76.1397 5.2343 76.4193 5.11884 76.7666 5.11884C77.1055 5.11884 77.3808 5.2343 77.5926 5.46523C77.8129 5.6876 77.923 5.98267 77.923 6.35044V7.51789H77.9738C78.3466 6.78235 78.8803 6.20077 79.575 5.77313C80.2781 5.33693 81.1423 5.11884 82.1673 5.11884C83.1416 5.11884 83.9718 5.31983 84.658 5.72181C85.3442 6.12379 85.8652 6.69683 86.2211 7.44092C86.5853 8.17646 86.7675 9.05312 86.7675 10.0709V17.6914C86.7675 18.0849 86.6531 18.4013 86.4244 18.6408C86.1956 18.8803 85.9034 19 85.5476 19C85.2002 19 84.9122 18.8803 84.6834 18.6408C84.4547 18.4013 84.3403 18.0849 84.3403 17.6914V10.5199C84.3403 9.46793 84.0947 8.66397 83.6033 8.10804C83.1119 7.54355 82.3707 7.26131 81.3795 7.26131C80.7017 7.26131 80.1129 7.41526 79.6131 7.72316C79.1133 8.02251 78.7236 8.44587 78.444 8.99325C78.1729 9.53207 78.0374 10.1693 78.0374 10.9048V17.6914C78.0374 18.0849 77.923 18.4013 77.6943 18.6408C77.4655 18.8803 77.1775 19 76.8301 19Z" fill="#FF6B00"/>
<path d="M94.3666 18.9872C93.2484 18.9872 92.2614 18.7049 91.4058 18.1404C90.5586 17.5674 89.8978 16.7634 89.4234 15.7286C88.9574 14.6851 88.7245 13.4578 88.7245 12.0466C88.7245 10.6439 88.9574 9.42516 89.4234 8.39028C89.8893 7.35539 90.5416 6.55571 91.3803 5.99122C92.2275 5.41819 93.2102 5.13167 94.3285 5.13167C94.9639 5.13167 95.5484 5.23002 96.0822 5.42674C96.6244 5.62345 97.103 5.90569 97.5181 6.27346C97.9332 6.63268 98.2679 7.06032 98.522 7.55638H98.5728V1.30858C98.5728 0.915147 98.6872 0.598695 98.916 0.359217C99.1447 0.119739 99.437 0 99.7928 0C100.149 0 100.437 0.119739 100.657 0.359217C100.886 0.598695 101 0.915147 101 1.30858V17.7812C101 18.149 100.89 18.4441 100.67 18.6664C100.458 18.8888 100.174 19 99.8182 19C99.4708 19 99.1743 18.8888 98.9287 18.6664C98.6915 18.4441 98.5728 18.149 98.5728 17.7812V16.37H98.5347C98.306 16.8917 97.9968 17.3493 97.6071 17.7427C97.2174 18.1362 96.7514 18.4441 96.2092 18.6664C95.6755 18.8803 95.0613 18.9872 94.3666 18.9872ZM94.9004 16.8704C95.6459 16.8704 96.294 16.6736 96.8446 16.2802C97.3953 15.8868 97.8231 15.3266 98.1281 14.5996C98.4415 13.8726 98.5983 13.0259 98.5983 12.0594C98.5983 11.0844 98.4415 10.2377 98.1281 9.51924C97.8231 8.80081 97.3953 8.2406 96.8446 7.83862C96.294 7.43664 95.6459 7.23565 94.9004 7.23565C94.1464 7.23565 93.4898 7.43664 92.9307 7.83862C92.38 8.23205 91.9522 8.78798 91.6472 9.50641C91.3507 10.2248 91.2024 11.0758 91.2024 12.0594C91.2024 13.043 91.3507 13.8983 91.6472 14.6253C91.9522 15.3437 92.38 15.8996 92.9307 16.293C93.4898 16.6779 94.1464 16.8704 94.9004 16.8704Z" fill="#FF6B00"/>
</g>
</svg>
