<svg width="44" height="44" viewBox="0 0 44 44" fill="none" xmlns="http://www.w3.org/2000/svg">
<g id="Group 12">
<g id="Group 10">
<path id="Polygon 5" d="M19.9109 1.16767C21.1526 0.450784 22.6824 0.450784 23.9241 1.16767L36.687 8.53636C37.9287 9.25324 38.6936 10.5781 38.6936 12.0119V26.7492C38.6936 28.183 37.9287 29.5079 36.687 30.2248L23.9241 37.5934C22.6824 38.3103 21.1526 38.3103 19.9109 37.5934L7.14794 30.2248C5.90626 29.5079 5.14136 28.183 5.14136 26.7492V12.0119C5.14136 10.5781 5.90626 9.25324 7.14794 8.53636L19.9109 1.16767Z" fill="url(#paint0_linear_1_530)"/>
<path id="Polygon 5 (Stroke)" fill-rule="evenodd" clip-rule="evenodd" d="M35.8844 9.92656L23.1214 2.55787C22.3764 2.12774 21.4585 2.12774 20.7135 2.55787L7.95058 9.92656C7.20557 10.3567 6.74663 11.1516 6.74663 12.0119V26.7492C6.74663 27.6095 7.20557 28.4044 7.95058 28.8346L20.7135 36.2032C21.4585 36.6334 22.3764 36.6334 23.1214 36.2032L35.8844 28.8346C36.6294 28.4044 37.0883 27.6095 37.0883 26.7492V12.0119C37.0883 11.1516 36.6294 10.3567 35.8844 9.92656ZM23.9241 1.16767C22.6824 0.450784 21.1526 0.450784 19.9109 1.16767L7.14794 8.53636C5.90626 9.25324 5.14136 10.5781 5.14136 12.0119V26.7492C5.14136 28.183 5.90626 29.5079 7.14794 30.2248L19.9109 37.5934C21.1526 38.3103 22.6824 38.3103 23.9241 37.5934L36.687 30.2248C37.9287 29.5079 38.6936 28.183 38.6936 26.7492V12.0119C38.6936 10.5781 37.9287 9.25324 36.687 8.53636L23.9241 1.16767Z" fill="url(#paint1_linear_1_530)"/>
<g id="Group 13">
<g id="Group 11">
<path id="Polygon 8" d="M15.5693 9.06325C15.7154 8.97892 15.8954 8.97892 16.0415 9.06325L20.9521 11.8984C21.0982 11.9828 21.1882 12.1386 21.1882 12.3073V17.9777C21.1882 18.1463 21.0982 18.3022 20.9521 18.3865L16.0415 21.2217C15.8954 21.306 15.7154 21.306 15.5694 21.2217L10.6587 18.3865C10.5126 18.3022 10.4226 18.1463 10.4226 17.9777V12.3073C10.4226 12.1386 10.5126 11.9828 10.6587 11.8984L15.5693 9.06325Z" fill="#4DCA38"/>
<path id="Polygon 10 (Stroke)" fill-rule="evenodd" clip-rule="evenodd" d="M28.1484 10.5624L24.1819 12.8524V17.4325L28.1484 19.7226L32.1149 17.4325V12.8524L28.1484 10.5624ZM28.3845 9.06325C28.2384 8.97892 28.0584 8.97892 27.9124 9.06325L23.0017 11.8984C22.8556 11.9828 22.7656 12.1386 22.7656 12.3073V17.9777C22.7656 18.1463 22.8556 18.3022 23.0017 18.3865L27.9124 21.2217C28.0584 21.306 28.2384 21.306 28.3845 21.2217L33.2952 18.3865C33.4412 18.3022 33.5312 18.1463 33.5312 17.9777V12.3073C33.5312 12.1386 33.4412 11.9828 33.2952 11.8984L28.3845 9.06325Z" fill="#FF6B00"/>
<path id="Polygon 9" d="M21.7407 19.6839C21.8868 19.5995 22.0668 19.5995 22.2128 19.6839L27.1235 22.519C27.2696 22.6034 27.3596 22.7592 27.3596 22.9279V28.5983C27.3596 28.7669 27.2696 28.9228 27.1235 29.0071L22.2128 31.8423C22.0668 31.9266 21.8868 31.9266 21.7407 31.8423L16.83 29.0071C16.684 28.9228 16.594 28.7669 16.594 28.5983V22.9279C16.594 22.7592 16.684 22.6034 16.83 22.519L21.7407 19.6839Z" fill="#207711"/>
</g>
</g>
<path id="Polygon 7 (Stroke)" fill-rule="evenodd" clip-rule="evenodd" d="M12.0552 0.401451C12.2769 0.785345 12.1453 1.27623 11.7614 1.49787L3.21054 6.43473C2.21719 7.00824 1.60527 8.06812 1.60527 9.21513V19.0889C1.60527 19.5321 1.24592 19.8915 0.802634 19.8915C0.359351 19.8915 0 19.5321 0 19.0889V9.21513C0 7.49461 0.917887 5.90479 2.4079 5.04453L10.9588 0.107667C11.3427 -0.113975 11.8336 0.0175571 12.0552 0.401451ZM31.78 0.401451C32.0016 0.0175571 32.4925 -0.113975 32.8764 0.107667L41.4273 5.04453C42.9173 5.90479 43.8352 7.49462 43.8352 9.21513V28.9626C43.8352 30.6831 42.9173 32.2729 41.4273 33.1332L24.3255 43.0069C22.8355 43.8672 20.9997 43.8672 19.5097 43.0069L10.9588 38.07C10.5749 37.8484 10.4434 37.3575 10.665 36.9736C10.8867 36.5897 11.3775 36.4582 11.7614 36.6798L20.3123 41.6167C21.3057 42.1902 22.5295 42.1902 23.5229 41.6167L40.6246 31.743C41.618 31.1695 42.2299 30.1096 42.2299 28.9626V9.21513C42.2299 8.06812 41.618 7.00824 40.6246 6.43473L32.0738 1.49787C31.6899 1.27623 31.5583 0.785345 31.78 0.401451Z" fill="#FF9E01"/>
</g>
</g>
<defs>
<linearGradient id="paint0_linear_1_530" x1="21.9175" y1="0.00916873" x2="21.9175" y2="38.752" gradientUnits="userSpaceOnUse">
<stop stop-color="#FFF7EB"/>
<stop offset="1" stop-color="#FFE2B5" stop-opacity="0.84"/>
</linearGradient>
<linearGradient id="paint1_linear_1_530" x1="21.9175" y1="0.00916873" x2="21.9175" y2="38.752" gradientUnits="userSpaceOnUse">
<stop stop-color="#FFC700"/>
<stop offset="1" stop-color="#FF6B00"/>
</linearGradient>
</defs>
</svg>
