<svg width="14" height="16" viewBox="0 0 14 16" fill="none" xmlns="http://www.w3.org/2000/svg">
<path d="M0.953125 11.4777L7.02018 14.9807L13.0872 11.4777V4.47179L7.02018 0.96875L0.953125 4.47172V11.4777Z" fill="#469EA2"/>
<path d="M6.39903 1.80664L1.99325 4.349C2.00047 4.42829 2.00047 4.50807 1.99325 4.58736L6.39179 7.12972C6.57263 6.99596 6.79162 6.92377 7.01655 6.92377C7.24148 6.92377 7.46047 6.99596 7.64131 7.12972L12.0399 4.58736C12.0327 4.50807 12.0327 4.42829 12.0399 4.349L7.64856 1.80664C7.46768 1.94031 7.2487 2.01245 7.02379 2.01245C6.79888 2.01245 6.57991 1.94031 6.39903 1.80664ZM12.466 5.28795L8.06023 7.85921C8.0841 8.08221 8.03688 8.30705 7.92533 8.50161C7.81378 8.69618 7.6436 8.85052 7.43909 8.94259L7.44627 13.9985C7.51749 14.0299 7.58527 14.0686 7.64856 14.114L12.0471 11.5716C12.0232 11.3486 12.0704 11.1238 12.182 10.9292C12.2935 10.7347 12.4637 10.5803 12.6682 10.4883V5.40355C12.5978 5.37051 12.5302 5.33186 12.466 5.28795ZM1.57426 5.31678C1.51105 5.36226 1.44328 5.40102 1.37204 5.43245V10.5172C1.57904 10.606 1.75156 10.7597 1.8636 10.9551C1.97563 11.1505 2.02111 11.377 1.99318 11.6005L6.39179 14.1429C6.45501 14.0975 6.52278 14.0588 6.59401 14.0274V8.94259C6.38699 8.85381 6.21446 8.70011 6.10245 8.50468C5.99037 8.30928 5.94489 8.08273 5.97287 7.85921L1.57426 5.31678Z" fill="#6ACAD1"/>
<path d="M7.02018 1.72718L12.4444 4.86178V11.1238L7.02018 14.2585L1.59592 11.1238V4.85461L7.02018 1.72718ZM7.02018 0.983276L0.953125 4.48625V11.4922L7.02018 14.9952L13.0872 11.4922V4.48625L7.02018 0.983276Z" fill="#469EA2"/>
<path d="M7.06349 9.16653H6.9768C6.82778 9.1669 6.68015 9.13782 6.54241 9.08096C6.40466 9.0241 6.2795 8.94059 6.17413 8.83521C6.06877 8.72983 5.98526 8.60467 5.92841 8.46692C5.87156 8.32917 5.84249 8.18155 5.84287 8.03253V7.9459C5.84225 7.72145 5.90844 7.50189 6.03302 7.31518C6.15759 7.12848 6.33492 6.98307 6.54241 6.89747C6.68015 6.84061 6.82778 6.81153 6.9768 6.8119H7.06349C7.21251 6.81153 7.36014 6.84061 7.49788 6.89747C7.63563 6.95433 7.76078 7.03784 7.86615 7.14322C7.97152 7.2486 8.05503 7.37375 8.11188 7.51151C8.16873 7.64926 8.1978 7.79688 8.19742 7.9459V8.03253C8.19804 8.25698 8.13185 8.47654 8.00727 8.66324C7.88269 8.84995 7.70537 8.99536 7.49788 9.08096C7.36014 9.13782 7.21251 9.1669 7.06349 9.16653ZM7.06349 13.8251H6.9768C6.77534 13.8245 6.5774 13.8778 6.40344 13.9794C6.22948 14.081 6.08581 14.2272 5.98729 14.4029L7.02018 14.9952L8.053 14.4029C7.95447 14.2272 7.8108 14.081 7.63684 13.9794C7.46287 13.8778 7.26494 13.8245 7.06349 13.8251ZM13.0944 10.3221H13.051C12.8266 10.3216 12.6071 10.3878 12.4204 10.5124C12.2337 10.637 12.0883 10.8143 12.0027 11.0217C11.9458 11.1595 11.9167 11.3071 11.9171 11.4561V11.5427C11.916 11.7352 11.9659 11.9246 12.0616 12.0917L13.0944 11.4922V10.3221ZM12.0616 3.894C11.9667 4.06137 11.917 4.25049 11.9171 4.44286V4.52956C11.9167 4.67857 11.9458 4.8262 12.0026 4.96394C12.0595 5.10169 12.143 5.22684 12.2484 5.33221C12.3537 5.43759 12.4789 5.5211 12.6166 5.57795C12.7544 5.6348 12.902 5.66387 13.051 5.66349H13.0944V4.48632L12.0616 3.894ZM7.02018 0.983276L5.98729 1.57552C6.0853 1.75221 6.22866 1.89957 6.4026 2.0024C6.57653 2.10523 6.77474 2.15981 6.9768 2.16052H7.06349C7.26495 2.16112 7.46291 2.10786 7.63689 2.00627C7.81086 1.90468 7.95452 1.75844 8.053 1.58269L7.02018 0.983276ZM1.98595 3.88676L0.953125 4.48625V5.66349H0.996438C1.14546 5.66388 1.29309 5.63481 1.43084 5.57797C1.5686 5.52112 1.69376 5.43761 1.79914 5.33224C1.90452 5.22687 1.98804 5.10171 2.04489 4.96396C2.10175 4.82621 2.13082 4.67858 2.13044 4.52956V4.44293C2.12798 4.24858 2.0784 4.05773 1.98595 3.88676ZM0.996438 10.3221H0.953125V11.4922L1.98602 12.0917C2.08082 11.9243 2.13058 11.7351 2.13044 11.5427V11.4561C2.13104 11.2317 2.06483 11.0121 1.94025 10.8254C1.81566 10.6387 1.63833 10.4933 1.43083 10.4077C1.29308 10.3508 1.14546 10.3217 0.996438 10.3221Z" fill="#469EA2"/>
<path d="M7.02018 15.0313V8.01811L0.953125 4.51514V11.5283L7.02018 15.0313Z" fill="#083B54" fill-opacity="0.15"/>
<path d="M13.0943 11.4632V4.45728L7.02734 7.96024V14.9734L13.0943 11.4632Z" fill="#083B54" fill-opacity="0.05"/>
</svg>
