<svg width="16" height="20" viewBox="0 0 16 20" fill="none" xmlns="http://www.w3.org/2000/svg">
<path d="M1 17C0.71667 17 0.479004 16.904 0.287004 16.712C0.0950036 16.52 -0.000663206 16.2827 3.4602e-06 16C3.4602e-06 15.7167 0.0960036 15.479 0.288004 15.287C0.480004 15.095 0.717337 14.9993 1 15H2V8C2 6.61667 2.41667 5.38734 3.25 4.312C4.08334 3.23667 5.16667 2.53267 6.5 2.2V1.5C6.5 1.08334 6.646 0.729002 6.938 0.437002C7.23 0.145002 7.584 -0.000664389 8 2.2779e-06C8.41667 2.2779e-06 8.771 0.146002 9.063 0.438002C9.355 0.730002 9.50067 1.084 9.5 1.5V2.2C10.8333 2.53334 11.9167 3.23767 12.75 4.313C13.5833 5.38834 14 6.61734 14 8V15H15C15.2833 15 15.521 15.096 15.713 15.288C15.905 15.48 16.0007 15.7173 16 16C16 16.2833 15.904 16.521 15.712 16.713C15.52 16.905 15.2827 17.0007 15 17H1ZM8 20C7.45 20 6.979 19.804 6.587 19.412C6.195 19.02 5.99934 18.5493 6 18H10C10 18.55 9.804 19.021 9.412 19.413C9.02 19.805 8.54934 20.0007 8 20Z" fill="#DCDCDC"/>
</svg>
