<svg width="15" height="19" viewBox="0 0 15 19" fill="none" xmlns="http://www.w3.org/2000/svg">
<path d="M1.15391 2.23528C0.847892 2.23528 0.554408 2.11753 0.338021 1.90793C0.121634 1.69834 6.83544e-05 1.41406 6.83544e-05 1.11764C6.83544e-05 0.821225 0.121634 0.536948 0.338021 0.32735C0.554408 0.117751 0.847892 0 1.15391 0H13.8462C14.1522 0 14.4457 0.117751 14.662 0.32735C14.8784 0.536948 15 0.821225 15 1.11764C15 1.41406 14.8784 1.69834 14.662 1.90793C14.4457 2.11753 14.1522 2.23528 13.8462 2.23528H8.62157C9.49385 3.17748 10.072 4.34021 10.2889 5.58821H13.8462C14.1522 5.58821 14.4457 5.70596 14.662 5.91556C14.8784 6.12516 15 6.40943 15 6.70585C15 7.00227 14.8784 7.28654 14.662 7.49614C14.4457 7.70574 14.1522 7.82349 13.8462 7.82349H10.2889C10.0487 9.19558 9.37409 10.4614 8.35847 11.4458C7.34284 12.4301 6.03643 13.0843 4.62005 13.3178L9.90118 16.9725C10.0245 17.0578 10.1293 17.1658 10.2096 17.2903C10.2898 17.4148 10.344 17.5534 10.369 17.6981C10.3939 17.8429 10.3892 17.991 10.3551 18.134C10.3209 18.2771 10.2581 18.4121 10.17 18.5316C10.082 18.6511 9.97052 18.7526 9.84198 18.8303C9.71345 18.9081 9.57036 18.9605 9.4209 18.9847C9.27143 19.0089 9.11851 19.0043 8.97087 18.9713C8.82323 18.9382 8.68375 18.8773 8.56041 18.792L0.498528 13.2139C0.346633 13.1135 0.222 12.9791 0.135219 12.8221C0.0484384 12.665 0.00207485 12.49 6.83544e-05 12.3119C-0.00298915 12.0377 0.096617 11.7717 0.280452 11.5631C0.389963 11.4392 0.5264 11.3403 0.679996 11.2734C0.833591 11.2066 1.00055 11.1735 1.16891 11.1764H3.46159C4.4849 11.1763 5.47917 10.8469 6.28825 10.24C7.09732 9.63314 7.67536 8.78313 7.93157 7.82349H1.15391C0.847892 7.82349 0.554408 7.70574 0.338021 7.49614C0.121634 7.28654 6.83544e-05 7.00227 6.83544e-05 6.70585C6.83544e-05 6.40943 0.121634 6.12516 0.338021 5.91556C0.554408 5.70596 0.847892 5.58821 1.15391 5.58821H7.93157C7.67536 4.62858 7.09732 3.77856 6.28825 3.17168C5.47917 2.56479 4.4849 2.23542 3.46159 2.23528H1.15391Z" fill="#1AA417"/>
</svg>
