<svg width="12" height="15" viewBox="0 0 12 16" fill="none" xmlns="http://www.w3.org/2000/svg">
<path d="M5.46975 0.719712C5.6104 0.579109 5.80113 0.500122 6 0.500122C6.19887 0.500122 6.3896 0.579109 6.53025 0.719712L8.78025 2.96971C8.91687 3.11116 8.99246 3.30062 8.99076 3.49726C8.98905 3.69391 8.91017 3.88202 8.77111 4.02108C8.63206 4.16013 8.44395 4.23901 8.2473 4.24072C8.05065 4.24243 7.8612 4.16683 7.71975 4.03021L6.75 3.06046V10.25C6.75 10.4489 6.67098 10.6396 6.53033 10.7803C6.38968 10.9209 6.19891 11 6 11C5.80109 11 5.61032 10.9209 5.46967 10.7803C5.32902 10.6396 5.25 10.4489 5.25 10.25V3.06046L4.28025 4.03021C4.1388 4.16683 3.94935 4.24243 3.7527 4.24072C3.55605 4.23901 3.36794 4.16013 3.22889 4.02108C3.08983 3.88202 3.01095 3.69391 3.00924 3.49726C3.00754 3.30062 3.08313 3.11116 3.21975 2.96971L5.46975 0.719712ZM0 7.24996C0 6.85214 0.158035 6.47061 0.43934 6.1893C0.720644 5.908 1.10218 5.74996 1.5 5.74996H3C3.19891 5.74996 3.38968 5.82898 3.53033 5.96963C3.67098 6.11028 3.75 6.30105 3.75 6.49996C3.75 6.69887 3.67098 6.88964 3.53033 7.03029C3.38968 7.17094 3.19891 7.24996 3 7.24996H1.5V14H10.5V7.24996H9C8.80109 7.24996 8.61032 7.17094 8.46967 7.03029C8.32902 6.88964 8.25 6.69887 8.25 6.49996C8.25 6.30105 8.32902 6.11028 8.46967 5.96963C8.61032 5.82898 8.80109 5.74996 9 5.74996H10.5C10.8978 5.74996 11.2794 5.908 11.5607 6.1893C11.842 6.47061 12 6.85214 12 7.24996V14C12 14.3978 11.842 14.7793 11.5607 15.0606C11.2794 15.3419 10.8978 15.5 10.5 15.5H1.5C1.10218 15.5 0.720644 15.3419 0.43934 15.0606C0.158035 14.7793 0 14.3978 0 14V7.24996Z" fill="white"/>
</svg>
