<svg width="14" height="14" viewBox="0 0 14 14" fill="none" xmlns="http://www.w3.org/2000/svg">
<path d="M7.00016 10.3333C7.18905 10.3333 7.3475 10.2693 7.4755 10.1413C7.6035 10.0133 7.66727 9.85503 7.66683 9.66659V6.98325C7.66683 6.79436 7.60283 6.63881 7.47483 6.51659C7.34683 6.39436 7.18861 6.33325 7.00016 6.33325C6.81127 6.33325 6.65283 6.39725 6.52483 6.52525C6.39683 6.65325 6.33305 6.81147 6.3335 6.99992V9.68325C6.3335 9.87214 6.3975 10.0277 6.5255 10.1499C6.6535 10.2721 6.81172 10.3333 7.00016 10.3333ZM7.00016 4.99992C7.18905 4.99992 7.3475 4.93592 7.4755 4.80792C7.6035 4.67992 7.66727 4.5217 7.66683 4.33325C7.66683 4.14436 7.60283 3.98592 7.47483 3.85792C7.34683 3.72992 7.18861 3.66614 7.00016 3.66659C6.81127 3.66659 6.65283 3.73059 6.52483 3.85859C6.39683 3.98659 6.33305 4.14481 6.3335 4.33325C6.3335 4.52214 6.3975 4.68059 6.5255 4.80859C6.6535 4.93659 6.81172 5.00036 7.00016 4.99992ZM7.00016 13.6666C6.07794 13.6666 5.21127 13.4915 4.40016 13.1413C3.58905 12.791 2.8835 12.3161 2.2835 11.7166C1.6835 11.1166 1.20861 10.411 0.858829 9.59992C0.509052 8.78881 0.333941 7.92214 0.333496 6.99992C0.333496 6.0777 0.508607 5.21103 0.858829 4.39992C1.20905 3.58881 1.68394 2.88325 2.2835 2.28325C2.8835 1.68325 3.58905 1.20836 4.40016 0.858585C5.21127 0.508808 6.07794 0.333696 7.00016 0.333252C7.92239 0.333252 8.78905 0.508363 9.60016 0.858585C10.4113 1.20881 11.1168 1.6837 11.7168 2.28325C12.3168 2.88325 12.7919 3.58881 13.1422 4.39992C13.4924 5.21103 13.6673 6.0777 13.6668 6.99992C13.6668 7.92214 13.4917 8.78881 13.1415 9.59992C12.7913 10.411 12.3164 11.1166 11.7168 11.7166C11.1168 12.3166 10.4113 12.7917 9.60016 13.1419C8.78905 13.4921 7.92239 13.667 7.00016 13.6666Z" fill="#64748B"/>
</svg>
